<svg width="1920" height="298" viewBox="0 0 1920 298" fill="none" xmlns="http://www.w3.org/2000/svg">
<g clip-path="url(#clip0_4166_1022)">
<path opacity="0.04" d="M-25.9601 192C-71.2336 192 -113.278 168.185 -154.175 145.065C-175.121 133.218 -196.792 120.887 -218.523 112.122C-317.823 71.7151 -442.657 104.778 -508.877 188.948L-516 183.326C-447.365 96.1045 -318.004 61.8627 -215.203 103.721C-192.929 112.787 -171.016 125.178 -149.828 137.146C-101.537 164.498 -55.8708 190.308 -5.22492 181.059C36.4568 173.443 67.4541 144.128 100.413 113.059C126.611 88.277 153.715 62.6182 186.976 48.716C227.662 31.731 273.237 34.0279 313.44 36.0226C352.677 37.987 397.467 40.1933 436.04 24.4172C470.78 10.1523 504.765 -26.991 499.212 -67.7307L508.267 -69C514.635 -23.2434 478.507 16.8314 439.542 32.7888C399.097 49.3506 353.371 47.0537 313.047 45.0288C273.81 43.0946 229.322 40.8581 190.537 57.1178C158.605 70.3551 132.105 95.4699 106.51 119.648C74.1546 150.263 40.7428 181.875 -3.59505 189.975C-10.9737 191.325 -18.4594 192.002 -25.9601 192V192Z" fill="#00160A"/>
<path opacity="0.1" d="M157.356 219C119.948 219 84.2009 195.51 62.1911 171.657C43.3817 151.221 28.4971 127.187 14.307 103.909C5.24946 89.2768 -4.04961 74.1007 -14.2846 60.0128C-84.4805 -36.6369 -211.226 -91.5068 -329.638 -76.4516L-330 -79.4747C-269.597 -86.7349 -208.354 -77.6418 -152.654 -53.1432C-96.6363 -29.2994 -48.0375 9.16293 -11.9297 58.2292C-1.60408 72.4077 7.72516 87.6443 16.7827 102.337C31.003 125.464 45.7064 149.377 64.3347 169.602C90.9639 198.503 138.093 227.041 183.26 211.926C211.067 202.644 231.567 179.034 251.192 156.209C272.749 131.238 295.06 105.42 327.064 98.4974C361.392 91.0907 393.908 107.93 425.368 124.224C453.869 139.007 483.366 154.274 514.313 151.795C560.446 148.107 594.11 107.023 622.067 68.7799L736.554 -88L739 -86.2163L624.573 70.4427C596.253 109.199 562.076 150.888 514.645 154.667C482.762 157.207 452.963 141.759 424.07 126.794C391.674 110.016 361.06 94.1441 327.818 101.339C296.781 108.05 275.768 132.357 253.547 158.053C233.56 181.21 212.878 205.123 184.287 214.677C175.602 217.565 166.507 219.025 157.356 219Z" fill="#00160A"/>
<path opacity="0.04" d="M1012.06 299L1003 298.396C1006.02 254.26 1028.97 211.09 1066.07 179.935C1103.18 148.78 1149.67 133.625 1193.63 138.304C1217.06 140.81 1240.46 148.085 1263.07 155.12C1303.05 167.557 1340.82 179.271 1377.62 166.32C1414.43 153.369 1438.01 119.285 1460.92 86.2585C1465.57 79.5868 1470.37 72.6735 1475.17 66.0923C1504.94 25.3373 1553.67 -12.3989 1601.1 3.87294C1628.88 13.4126 1646.39 38.0468 1663.12 61.8961C1679.85 85.7453 1695.55 107.813 1720.48 116.508C1739.02 122.998 1758.74 120.372 1779.6 117.625C1789.7 116.102 1799.86 115.094 1810.06 114.606C1832.13 113.972 1855.65 122.878 1868.61 136.734C1872.64 140.802 1875.74 145.704 1877.68 151.097C1879.62 156.49 1880.36 162.242 1879.84 167.95L1870.78 167.074C1871.18 162.646 1870.59 158.185 1869.06 154.01C1867.53 149.835 1865.1 146.049 1861.93 142.923C1850.64 130.848 1829.9 123.089 1810.24 123.663C1800.37 124.161 1790.52 125.169 1780.75 126.682C1759.61 129.459 1738.03 132.357 1717.34 125.142C1689.75 115.512 1672.42 90.968 1655.63 67.2093C1638.84 43.4506 1623.08 21.1108 1598.12 12.5372C1555.3 -2.13467 1510.29 33.3977 1482.42 71.5264C1477.68 78.017 1472.91 84.8699 1468.32 91.5114C1444.53 125.746 1420.01 161.127 1380.58 174.954C1341.15 188.78 1299.94 176.191 1260.33 163.844C1238.11 156.961 1215.04 149.806 1192.58 147.391C1151.06 142.984 1107.01 157.384 1071.81 186.969C1036.6 216.554 1014.87 257.339 1012.06 299Z" fill="#00160A"/>
<path opacity="0.1" d="M719.778 352C710.374 352.025 701.017 350.678 692 348.001L692.876 344.972C740.309 359.179 789.493 332.188 819.686 302.197C841.758 280.295 859.42 253.728 876.48 228.312C885.537 215.013 894.595 201.229 904.287 188.233C939.915 140.673 978.23 113.439 1018.27 107.38C1070.47 99.4435 1118.93 127.162 1165.79 153.972C1212.65 180.781 1261.11 208.5 1312.65 199.745C1345.35 194.232 1373.58 174.541 1400.9 155.486C1425.81 138.068 1451.6 120.073 1481.13 112.409C1531.03 99.4435 1590.79 118.316 1637.07 161.636C1678.95 200.805 1705.91 252.062 1732 301.652L1729.34 303.076C1703.38 253.698 1676.51 202.653 1635.02 163.726C1599.3 130.403 1540.33 100.11 1481.88 115.257C1452.9 122.769 1427.32 140.612 1402.62 157.88C1375.03 177.116 1346.53 197.019 1313.13 202.653C1260.57 211.529 1211.62 183.568 1164.31 156.516C1117.87 129.979 1069.84 102.533 1018.72 110.289C979.468 116.347 941.817 143.036 906.703 189.96C897.041 202.896 887.862 216.618 878.986 229.887C861.836 255.576 844.082 282.143 821.8 304.257C796.8 329.189 759.059 352 719.778 352Z" fill="#00160A"/>
</g>
<defs>
<clipPath id="clip0_4166_1022">
<rect width="1921" height="298" fill="white"/>
</clipPath>
</defs>
</svg>
